<mxfile host="Electron" modified="2024-08-26T21:22:17.086Z" agent="Mozilla/5.0 (Macintosh; Intel Mac OS X 10_15_7) AppleWebKit/537.36 (KHTML, like Gecko) draw.io/21.5.1 Chrome/112.0.5615.204 Electron/24.6.0 Safari/537.36" etag="UF0MnNEs2U7kQ7ODplxS" version="21.5.1" type="device">
  <diagram name="Page-1" id="YUp5ZlizNL3RBQ25fwvp">
    <mxGraphModel dx="604" dy="405" grid="1" gridSize="10" guides="1" tooltips="1" connect="1" arrows="1" fold="1" page="1" pageScale="1" pageWidth="827" pageHeight="1169" math="0" shadow="0">
      <root>
        <mxCell id="0" />
        <mxCell id="1" parent="0" />
        <mxCell id="cw4TwNczknK1vkrM3wKu-5" style="edgeStyle=orthogonalEdgeStyle;rounded=0;orthogonalLoop=1;jettySize=auto;html=1;entryX=0;entryY=0.5;entryDx=0;entryDy=0;" edge="1" parent="1" source="cw4TwNczknK1vkrM3wKu-1" target="cw4TwNczknK1vkrM3wKu-2">
          <mxGeometry relative="1" as="geometry" />
        </mxCell>
        <mxCell id="cw4TwNczknK1vkrM3wKu-6" value="1. Upload template .docx" style="edgeLabel;html=1;align=center;verticalAlign=middle;resizable=0;points=[];" vertex="1" connectable="0" parent="cw4TwNczknK1vkrM3wKu-5">
          <mxGeometry x="-0.6518" y="2" relative="1" as="geometry">
            <mxPoint x="68" y="-8" as="offset" />
          </mxGeometry>
        </mxCell>
        <mxCell id="cw4TwNczknK1vkrM3wKu-7" style="edgeStyle=orthogonalEdgeStyle;rounded=0;orthogonalLoop=1;jettySize=auto;html=1;entryX=0;entryY=0.5;entryDx=0;entryDy=0;" edge="1" parent="1" source="cw4TwNczknK1vkrM3wKu-1" target="cw4TwNczknK1vkrM3wKu-4">
          <mxGeometry relative="1" as="geometry">
            <Array as="points">
              <mxPoint x="220" y="170" />
              <mxPoint x="220" y="340" />
            </Array>
          </mxGeometry>
        </mxCell>
        <mxCell id="cw4TwNczknK1vkrM3wKu-8" value="2. POST request&lt;br&gt;including the substitution rules" style="edgeLabel;html=1;align=center;verticalAlign=middle;resizable=0;points=[];" vertex="1" connectable="0" parent="cw4TwNczknK1vkrM3wKu-7">
          <mxGeometry x="0.3706" y="2" relative="1" as="geometry">
            <mxPoint x="-14" y="22" as="offset" />
          </mxGeometry>
        </mxCell>
        <mxCell id="cw4TwNczknK1vkrM3wKu-1" value="Actor" style="shape=umlActor;verticalLabelPosition=bottom;verticalAlign=top;html=1;outlineConnect=0;" vertex="1" parent="1">
          <mxGeometry x="160" y="140" width="30" height="60" as="geometry" />
        </mxCell>
        <mxCell id="cw4TwNczknK1vkrM3wKu-3" value="TemplatePopulator" style="swimlane;" vertex="1" parent="1">
          <mxGeometry x="390" y="100" width="200" height="290" as="geometry" />
        </mxCell>
        <mxCell id="cw4TwNczknK1vkrM3wKu-2" value="Storage Account" style="rounded=0;whiteSpace=wrap;html=1;" vertex="1" parent="cw4TwNczknK1vkrM3wKu-3">
          <mxGeometry x="40" y="40" width="120" height="60" as="geometry" />
        </mxCell>
        <mxCell id="cw4TwNczknK1vkrM3wKu-14" style="edgeStyle=orthogonalEdgeStyle;rounded=0;orthogonalLoop=1;jettySize=auto;html=1;entryX=0.5;entryY=1;entryDx=0;entryDy=0;" edge="1" parent="cw4TwNczknK1vkrM3wKu-3" source="cw4TwNczknK1vkrM3wKu-4" target="cw4TwNczknK1vkrM3wKu-2">
          <mxGeometry relative="1" as="geometry" />
        </mxCell>
        <mxCell id="cw4TwNczknK1vkrM3wKu-15" value="3. Fetch template&lt;br&gt;and save document .pdf" style="edgeLabel;html=1;align=center;verticalAlign=middle;resizable=0;points=[];" vertex="1" connectable="0" parent="cw4TwNczknK1vkrM3wKu-14">
          <mxGeometry x="0.1176" relative="1" as="geometry">
            <mxPoint y="41" as="offset" />
          </mxGeometry>
        </mxCell>
        <mxCell id="cw4TwNczknK1vkrM3wKu-4" value="Function" style="rounded=0;whiteSpace=wrap;html=1;" vertex="1" parent="cw4TwNczknK1vkrM3wKu-3">
          <mxGeometry x="40" y="210" width="120" height="60" as="geometry" />
        </mxCell>
        <mxCell id="cw4TwNczknK1vkrM3wKu-17" value="Hello World!" style="shape=document;whiteSpace=wrap;html=1;boundedLbl=1;" vertex="1" parent="cw4TwNczknK1vkrM3wKu-3">
          <mxGeometry x="100" y="112.5" width="90" height="65" as="geometry" />
        </mxCell>
        <mxCell id="cw4TwNczknK1vkrM3wKu-16" value="Hello PLACHOLDER" style="shape=document;whiteSpace=wrap;html=1;boundedLbl=1;" vertex="1" parent="1">
          <mxGeometry x="280" y="170" width="90" height="65" as="geometry" />
        </mxCell>
        <mxCell id="cw4TwNczknK1vkrM3wKu-18" value="PLACEHOLDER -&amp;gt; World!" style="rounded=0;whiteSpace=wrap;html=1;" vertex="1" parent="1">
          <mxGeometry x="230" y="310" width="150" height="28" as="geometry" />
        </mxCell>
      </root>
    </mxGraphModel>
  </diagram>
</mxfile>
